<mxfile host="app.diagrams.net" modified="2021-04-11T13:38:01.812Z" agent="5.0 (X11; Linux x86_64) AppleWebKit/537.36 (KHTML, like Gecko) Chrome/89.0.4389.90 Safari/537.36" etag="bBNVfxvvUtTdStn5ih7S" version="14.5.10" type="github">
  <diagram name="Page-1" id="38b20595-45e3-9b7f-d5ca-b57f44c5b66d">
    <mxGraphModel dx="2700" dy="1548" grid="1" gridSize="10" guides="1" tooltips="1" connect="1" arrows="1" fold="1" page="1" pageScale="1" pageWidth="1100" pageHeight="850" background="#ffffff" math="0" shadow="0">
      <root>
        <mxCell id="0" />
        <mxCell id="1" parent="0" />
        <mxCell id="48ef80bc37b76060-127" value="" style="verticalLabelPosition=bottom;html=1;verticalAlign=top;align=center;strokeWidth=1;shape=mxgraph.floorplan.wallCorner;fillColor=#000000;rounded=0;shadow=0;comic=0;fontFamily=Verdana;fontSize=12;" parent="1" vertex="1">
          <mxGeometry x="393" y="240" width="103" height="557" as="geometry" />
        </mxCell>
        <mxCell id="48ef80bc37b76060-128" value="" style="verticalLabelPosition=bottom;html=1;verticalAlign=top;align=center;strokeWidth=1;shape=mxgraph.floorplan.wallU;fillColor=#000000;rounded=0;shadow=0;comic=0;fontFamily=Verdana;fontSize=12;rotation=90;" parent="1" vertex="1">
          <mxGeometry x="1021" y="-380" width="1210" height="2456" as="geometry" />
        </mxCell>
        <mxCell id="48ef80bc37b76060-156" value="" style="verticalLabelPosition=bottom;html=1;verticalAlign=top;align=center;strokeWidth=1;shape=mxgraph.floorplan.wall;fillColor=#000000;direction=south;rounded=0;shadow=0;comic=0;fontFamily=Verdana;fontSize=12;" parent="1" vertex="1">
          <mxGeometry x="393" y="789" width="10" height="664" as="geometry" />
        </mxCell>
        <mxCell id="jp2jZMtCgZHAsF0I3UOK-4" value="" style="verticalLabelPosition=bottom;html=1;verticalAlign=top;align=center;shape=mxgraph.floorplan.wallU;fillColor=#000000;" parent="1" vertex="1">
          <mxGeometry x="392.99" y="1040" width="607.01" height="413" as="geometry" />
        </mxCell>
        <mxCell id="jp2jZMtCgZHAsF0I3UOK-6" value="" style="verticalLabelPosition=bottom;html=1;verticalAlign=top;align=center;shape=mxgraph.floorplan.wallU;fillColor=#000000;" parent="1" vertex="1">
          <mxGeometry x="1040" y="1040" width="600" height="400" as="geometry" />
        </mxCell>
        <mxCell id="jp2jZMtCgZHAsF0I3UOK-7" value="" style="verticalLabelPosition=bottom;html=1;verticalAlign=top;align=center;shape=mxgraph.floorplan.wallU;fillColor=#000000;" parent="1" vertex="1">
          <mxGeometry x="1680" y="1040" width="570" height="404.18" as="geometry" />
        </mxCell>
        <mxCell id="jp2jZMtCgZHAsF0I3UOK-8" value="" style="verticalLabelPosition=bottom;html=1;verticalAlign=top;align=center;shape=mxgraph.floorplan.wallU;fillColor=#000000;" parent="1" vertex="1">
          <mxGeometry x="2280" y="1040" width="570" height="400" as="geometry" />
        </mxCell>
        <mxCell id="jp2jZMtCgZHAsF0I3UOK-9" value="" style="verticalLabelPosition=bottom;html=1;verticalAlign=top;align=center;shape=mxgraph.floorplan.wallU;fillColor=#000000;direction=west;" parent="1" vertex="1">
          <mxGeometry x="2280" y="250" width="570" height="390" as="geometry" />
        </mxCell>
        <mxCell id="jp2jZMtCgZHAsF0I3UOK-10" value="" style="verticalLabelPosition=bottom;html=1;verticalAlign=top;align=center;shape=mxgraph.floorplan.wallU;fillColor=#000000;direction=west;" parent="1" vertex="1">
          <mxGeometry x="1680" y="250" width="570" height="390" as="geometry" />
        </mxCell>
        <mxCell id="jp2jZMtCgZHAsF0I3UOK-11" value="" style="verticalLabelPosition=bottom;html=1;verticalAlign=top;align=center;shape=mxgraph.floorplan.wallU;fillColor=#000000;direction=west;" parent="1" vertex="1">
          <mxGeometry x="1040" y="250" width="600" height="400" as="geometry" />
        </mxCell>
        <mxCell id="jp2jZMtCgZHAsF0I3UOK-12" value="" style="verticalLabelPosition=bottom;html=1;verticalAlign=top;align=center;shape=mxgraph.floorplan.wallU;fillColor=#000000;direction=west;" parent="1" vertex="1">
          <mxGeometry x="430" y="250" width="570" height="400" as="geometry" />
        </mxCell>
        <mxCell id="jp2jZMtCgZHAsF0I3UOK-13" value="" style="verticalLabelPosition=bottom;html=1;verticalAlign=top;align=center;shape=mxgraph.floorplan.wallU;fillColor=#000000;direction=north;" parent="1" vertex="1">
          <mxGeometry x="620" y="720" width="1700" height="240" as="geometry" />
        </mxCell>
        <mxCell id="jp2jZMtCgZHAsF0I3UOK-18" value="" style="verticalLabelPosition=bottom;html=1;verticalAlign=top;align=center;shape=mxgraph.floorplan.doorDouble;aspect=fixed;direction=west;" parent="1" vertex="1">
          <mxGeometry x="1260" y="560" width="160" height="85" as="geometry" />
        </mxCell>
        <mxCell id="jp2jZMtCgZHAsF0I3UOK-19" value="" style="verticalLabelPosition=bottom;html=1;verticalAlign=top;align=center;shape=mxgraph.floorplan.wall;fillColor=#000000;direction=south;" parent="1" vertex="1">
          <mxGeometry x="2060" y="725" width="520" height="230" as="geometry" />
        </mxCell>
        <mxCell id="jp2jZMtCgZHAsF0I3UOK-20" value="" style="verticalLabelPosition=bottom;html=1;verticalAlign=top;align=center;shape=mxgraph.floorplan.room;fillColor=#000000;" parent="1" vertex="1">
          <mxGeometry x="2390" y="720" width="440" height="240" as="geometry" />
        </mxCell>
        <mxCell id="jp2jZMtCgZHAsF0I3UOK-22" value="" style="verticalLabelPosition=bottom;html=1;verticalAlign=top;align=center;shape=mxgraph.floorplan.doorDouble;aspect=fixed;direction=west;" parent="1" vertex="1">
          <mxGeometry x="1890" y="550" width="160" height="85" as="geometry" />
        </mxCell>
        <mxCell id="jp2jZMtCgZHAsF0I3UOK-23" value="" style="verticalLabelPosition=bottom;html=1;verticalAlign=top;align=center;shape=mxgraph.floorplan.doorDouble;aspect=fixed;direction=west;" parent="1" vertex="1">
          <mxGeometry x="2500" y="555" width="160" height="85" as="geometry" />
        </mxCell>
        <mxCell id="jp2jZMtCgZHAsF0I3UOK-24" value="" style="verticalLabelPosition=bottom;html=1;verticalAlign=top;align=center;shape=mxgraph.floorplan.doorDouble;aspect=fixed;direction=west;" parent="1" vertex="1">
          <mxGeometry x="635" y="565" width="160" height="85" as="geometry" />
        </mxCell>
        <mxCell id="jp2jZMtCgZHAsF0I3UOK-25" value="" style="verticalLabelPosition=bottom;html=1;verticalAlign=top;align=center;shape=mxgraph.floorplan.doorDouble;aspect=fixed;direction=east;" parent="1" vertex="1">
          <mxGeometry x="1270" y="1040" width="160" height="85" as="geometry" />
        </mxCell>
        <mxCell id="jp2jZMtCgZHAsF0I3UOK-26" value="" style="verticalLabelPosition=bottom;html=1;verticalAlign=top;align=center;shape=mxgraph.floorplan.doorDouble;aspect=fixed;direction=east;" parent="1" vertex="1">
          <mxGeometry x="616.49" y="1040" width="160" height="85" as="geometry" />
        </mxCell>
        <mxCell id="jp2jZMtCgZHAsF0I3UOK-27" value="" style="verticalLabelPosition=bottom;html=1;verticalAlign=top;align=center;shape=mxgraph.floorplan.doorDouble;aspect=fixed;direction=east;" parent="1" vertex="1">
          <mxGeometry x="1880" y="1040" width="160" height="85" as="geometry" />
        </mxCell>
        <mxCell id="jp2jZMtCgZHAsF0I3UOK-28" value="" style="verticalLabelPosition=bottom;html=1;verticalAlign=top;align=center;shape=mxgraph.floorplan.doorDouble;aspect=fixed;direction=east;" parent="1" vertex="1">
          <mxGeometry x="2510" y="1040" width="160" height="85" as="geometry" />
        </mxCell>
        <mxCell id="jp2jZMtCgZHAsF0I3UOK-29" value="" style="verticalLabelPosition=bottom;html=1;verticalAlign=top;align=center;shape=mxgraph.floorplan.doorDouble;aspect=fixed;direction=north;" parent="1" vertex="1">
          <mxGeometry x="620" y="760" width="85" height="160" as="geometry" />
        </mxCell>
        <mxCell id="jp2jZMtCgZHAsF0I3UOK-30" value="Text" style="text;html=1;strokeColor=none;fillColor=none;align=center;verticalAlign=middle;whiteSpace=wrap;rounded=0;" parent="1" vertex="1">
          <mxGeometry x="1550" y="820" width="40" height="20" as="geometry" />
        </mxCell>
        <mxCell id="jp2jZMtCgZHAsF0I3UOK-37" value="Container 9" style="text;strokeColor=none;fillColor=none;html=1;fontSize=40;fontStyle=1;verticalAlign=middle;align=center;" parent="1" vertex="1">
          <mxGeometry x="1450" y="790" width="140" height="40" as="geometry" />
        </mxCell>
        <mxCell id="jp2jZMtCgZHAsF0I3UOK-38" value="Container 1" style="text;strokeColor=none;fillColor=none;html=1;fontSize=40;fontStyle=1;verticalAlign=middle;align=center;" parent="1" vertex="1">
          <mxGeometry x="645" y="380" width="140" height="40" as="geometry" />
        </mxCell>
        <mxCell id="jp2jZMtCgZHAsF0I3UOK-39" value="Container 2" style="text;strokeColor=none;fillColor=none;html=1;fontSize=40;fontStyle=1;verticalAlign=middle;align=center;" parent="1" vertex="1">
          <mxGeometry x="1280" y="380" width="140" height="40" as="geometry" />
        </mxCell>
        <mxCell id="jp2jZMtCgZHAsF0I3UOK-40" value="Container 3" style="text;strokeColor=none;fillColor=none;html=1;fontSize=40;fontStyle=1;verticalAlign=middle;align=center;" parent="1" vertex="1">
          <mxGeometry x="1890" y="380" width="140" height="40" as="geometry" />
        </mxCell>
        <mxCell id="jp2jZMtCgZHAsF0I3UOK-41" value="Container 4" style="text;strokeColor=none;fillColor=none;html=1;fontSize=40;fontStyle=1;verticalAlign=middle;align=center;" parent="1" vertex="1">
          <mxGeometry x="2510" y="380" width="140" height="40" as="geometry" />
        </mxCell>
        <mxCell id="jp2jZMtCgZHAsF0I3UOK-42" value="Container 5" style="text;strokeColor=none;fillColor=none;html=1;fontSize=40;fontStyle=1;verticalAlign=middle;align=center;" parent="1" vertex="1">
          <mxGeometry x="621" y="1234" width="140" height="40" as="geometry" />
        </mxCell>
        <mxCell id="jp2jZMtCgZHAsF0I3UOK-43" value="Container 6" style="text;strokeColor=none;fillColor=none;html=1;fontSize=40;fontStyle=1;verticalAlign=middle;align=center;" parent="1" vertex="1">
          <mxGeometry x="1281" y="1226.5" width="140" height="40" as="geometry" />
        </mxCell>
        <mxCell id="jp2jZMtCgZHAsF0I3UOK-44" value="Container 7" style="text;strokeColor=none;fillColor=none;html=1;fontSize=40;fontStyle=1;verticalAlign=middle;align=center;" parent="1" vertex="1">
          <mxGeometry x="1920" y="1226.5" width="140" height="40" as="geometry" />
        </mxCell>
        <mxCell id="jp2jZMtCgZHAsF0I3UOK-45" value="Container 8" style="text;strokeColor=none;fillColor=none;html=1;fontSize=40;fontStyle=1;verticalAlign=middle;align=center;" parent="1" vertex="1">
          <mxGeometry x="2530" y="1222.0900000000001" width="140" height="40" as="geometry" />
        </mxCell>
        <mxCell id="jp2jZMtCgZHAsF0I3UOK-46" value="Control Room" style="text;strokeColor=none;fillColor=none;html=1;fontSize=40;fontStyle=1;verticalAlign=middle;align=center;" parent="1" vertex="1">
          <mxGeometry x="2560" y="810" width="140" height="40" as="geometry" />
        </mxCell>
        <mxCell id="jp2jZMtCgZHAsF0I3UOK-47" value="" style="verticalLabelPosition=bottom;html=1;verticalAlign=top;align=center;shape=mxgraph.floorplan.doorDouble;aspect=fixed;direction=north;" parent="1" vertex="1">
          <mxGeometry x="2390" y="768" width="85" height="160" as="geometry" />
        </mxCell>
        <mxCell id="F9vwXVcsLf8OvIbmWZOM-2" value="" style="verticalLabelPosition=bottom;html=1;verticalAlign=top;align=center;shape=mxgraph.floorplan.doorDouble;aspect=fixed;direction=south;" vertex="1" parent="1">
          <mxGeometry x="60" y="526.6" width="333" height="626.81" as="geometry" />
        </mxCell>
      </root>
    </mxGraphModel>
  </diagram>
</mxfile>
